<svg width="160" height="57" fill="none" xmlns="http://www.w3.org/2000/svg">
	<g fill="#fff">
		<path d="M138.6.5h18.9v5.4h-13.1V14H156v5.4h-11.7v8.4h13.6v5.4h-19.3V.5Z"/>
		<path d="M123.4 19.7999c3.9-1.4 6.5-5.2 6.3-9.3 0-5.6-2.9-10.1-11.8-10.1h-3.7v5.4c1.3 0 2.5-.1 3.4-.1 4.7 0 6.1 2.2 6.1 4.8 0 3.4-2.9 5-6.2 5h-3.2v5.4h3.5l9 12.2h6.9l-10.3-13.3Z"/>
		<path d="M54.5.3999h-1.8v5.4h1.7c7.8 0 12.4 4.2 12.4 10.8 0 6.9-4.6 11.4-12.4 11.4h-1.6v5.4h1.4c12.4 0 18.7-7.6 18.7-16.7-.1-8.8-5.3-16.3-18.4-16.3Z"/>
		<path d="M92.5 0c9.7 0 17 6.7 17 16.8 0 9.8-7.3 16.8-17 16.8s-17-6.7-17-16.8c.1-9.4 7-16.8 17-16.8Zm0 28.3c6.9 0 11-5 11-11.5 0-6.8-4.8-11.5-11-11.5S81.6 10 81.6 16.8c0 6.6 4.8 11.5 10.9 11.5Z"/>
		<path d="m14.7.5-8 13.7-3.6-6L0 13.7l3.5 5.9v13.6h5.7V19.5L20.8.5h-6.1Z"/>
		<path d="m32.6 7.5999 10.6 25.5H49L35.3.3999h-5l-13.9 32.7H22l10.6-25.5Z"/>
		<path d="M41.9 56.3h-1l-1.6-4.2c-.1-.3-.2-.5-.2-.8-.1.3-.2.6-.3.8l-1.6 4.2h-.9l-2.1-6.5h1.2l1.3 4.1001c.1.3.2.5999.2.8999.1-.3.1-.4999.3-.8999L38.7 49.8h1l1.5 4.1001.3.8999c.1-.3.2-.7.3-1l1.2-4h1l-2.1 6.5Z"/>
		<path d="M50.6 55.4999c-.7.6-1.5.9-2.4.8-1.8.1-3.3-1.2-3.5-2.9v-.4c-.1-1.7 1.2-3.3 3-3.4h.4c1.6-.1 2.9 1.2 3 2.8v.2c0 .3 0 .5-.1.8h-5c.1 1.1 1 2 2.2 1.9h.1c.7 0 1.4-.2 2-.7l.3.9Zm-4.7-3.1h3.9c0-.9-.8-1.7-1.7-1.7h-.2c-1 0-1.9.7-2 1.7Z"/>
		<path d="M55.8 46.2h1.1V54c0 .9.2 1.2999.8 1.2999.3 0 .6-.0999.8-.2999l.3.9c-.4.3-1 .5-1.5.5-1 0-1.5-.6001-1.5-1.8001V46.2Z"/>
		<path d="M63 49.7001c1.9 0 3.3 1.6 3.3 3.4 0 1.8-1.6 3.3-3.4 3.3-1.8 0-3.3-1.5-3.3-3.4-.1-1.8 1.3-3.3 3.2-3.4 0 0 .1 0 .2.1Zm0 5.6c1.3-.1 2.2-1.2 2.1-2.5-.1-1.1-1-2.1-2.1-2.1-1.3.1-2.2 1.2-2.1 2.5 0 1.1.9 2 2.1 2.1Z"/>
		<path d="M70.7 56.2999h-.8l-3-6.5h1.3l1.6 3.5c.2.4.4 1.0001.5 1.4001.2-.5.3-1 .5-1.5l1.5-3.5h1.2l-2.8 6.5999Z"/>
		<path d="M79.8 55.4999c-.7.6-1.5.9-2.4.8-1.8.1-3.3-1.2-3.5-2.9v-.4c-.1-1.7 1.2-3.3 3-3.4h.4c1.6-.1 2.9 1.2 3 2.8v.2c0 .3 0 .5-.1.8h-5c.1 1.1 1 2 2.2 1.9h.1c.7 0 1.4-.2 2-.7l.3.9Zm-4.7-3.1H79c0-.9-.8-1.7-1.7-1.7h-.2c-.9 0-1.8.7-2 1.7Z"/>
		<path d="M90.6 55.3c-.6.7-1.5 1.1-2.5 1.1-1.9.1-3.4-1.4-3.5-3.3-.1-1.9 1.4-3.4 3.3-3.5.9-.1 1.8.2 2.5.8l-.5.9c-.5-.5-1.2-.7-1.9-.7-1.3.1-2.2 1.2-2.1 2.5.1 1.2 1 2 2.2 2.1.7 0 1.4-.3 1.8-.8l.7.9Z"/>
		<path d="M94.7 49.7001c1.9 0 3.3 1.6 3.3 3.4 0 1.9-1.6 3.3-3.4 3.3-1.8 0-3.3-1.5-3.3-3.4-.1-1.8 1.3-3.3 3.2-3.4 0 0 .1 0 .2.1Zm0 5.6c1.3-.1 2.2-1.2 2.1-2.5-.1-1.1-1-2.1-2.1-2.1-1.3.1-2.2 1.2-2.1 2.5.1 1.1 1 2 2.1 2.1Z"/>
		<path d="M99.8 49.7999h1.1v.8c.6-.6 1.3-.8999 2.1-.8999 1.7 0 2.7.8 2.7 2.8v3.7h-1.1v-3.5c0-1.3-.6-2-1.8-2-.7 0-1.4.3-1.8.8v4.7h-1.1l-.1-6.4001Z"/>
		<path d="M110.5 56.2999h-.8l-3-6.5h1.3l1.6 3.5c.2.4.4 1.0001.5 1.4001.2-.5.3-1 .5-1.5l1.5-3.5h1.2l-2.8 6.5999Z"/>
		<path d="M119.7 55.4999c-.7.6-1.5.9-2.4.8-1.8.1-3.3-1.2-3.5-2.9v-.4c-.1-1.7 1.2-3.3 3-3.4h.4c1.6-.1 2.9 1.2 3 2.8v.2c0 .3 0 .5-.1.8h-5c.1 1.1 1 2 2.2 1.9h.1c.7 0 1.4-.2 2-.7l.3.9Zm-4.7-3.1h3.9c0-.9-.8-1.7-1.7-1.7h-.2c-.9 0-1.9.7-2 1.7Z"/>
		<path d="M121.7 49.7999h1.1v.8c.3-.6 1-.8999 1.6-.8999.4 0 .7.1 1 .2L125 51c-.3-.2-.6-.3001-.9-.2001-.6 0-1.1.4001-1.3.9001v4.5999h-1.1v-6.5Z"/>
		<path d="M126.4 51.5c0-1.1.9-1.8 2.2-1.8.8 0 1.6.2 2.2.8l-.5.9c-.4-.4-1-.6001-1.6-.6001-.6 0-1 .4-1 .8 0 1.4 3.5.7 3.5 3 0 1.4-1.2 2-2.5 2-.9 0-1.8-.3-2.4-1l.6-.8c.5.5 1.2.8 1.9.8.6 0 1.1-.2999 1.1-.8999 0-1.5-3.5-.9-3.5-3.2Z"/>
		<path d="M133.7 46.7c.4 0 .7.3.7.7 0 .4-.3.6999-.7.6999-.4 0-.7-.2999-.7-.6999v-.1001c-.1-.3.2-.5999.7-.5999 0 0-.1 0 0 0Zm-.6 3.0999h1.1v6.5h-1.1v-6.5Z"/>
		<path d="M139.6 49.7001c1.9 0 3.3 1.6 3.3 3.4 0 1.9-1.6 3.3-3.4 3.3-1.8 0-3.3-1.5-3.3-3.4-.1-1.8 1.3-3.3 3.2-3.4 0 0 .1 0 .2.1Zm0 5.6c1.3-.1 2.2-1.2 2.1-2.5-.1-1.1-1-2.1-2.1-2.1-1.3.1-2.2 1.2-2.1 2.5 0 1.1 1 2 2.1 2.1Z"/>
		<path d="M144.7 49.7999h1.1v.8c.6-.6 1.3-.8999 2.1-.8999 1.7 0 2.7.8 2.7 2.8v3.7h-1.1v-3.5c0-1.3-.6-2-1.8-2-.7 0-1.4.3-1.8.8v4.7h-1.1l-.1-6.4001Z"/>
		<path d="M152.4 51.5c0-1.1.9-1.8 2.2-1.8.8 0 1.6.2 2.2.8l-.5.9c-.4-.4-1-.6001-1.6-.6001-.6 0-1 .4-1 .8 0 1.4 3.5.7 3.5 3 0 1.4-1.2 2-2.5 2-.9 0-1.8-.3-2.4-1l.6-.8c.5.5 1.2.8 1.9.8.6 0 1.1-.2999 1.1-.8999-.1-1.5-3.5-.9-3.5-3.2Z"/>
		<path d="M159.2 54.7c.4 0 .8.3.8.8 0 .4-.3.7999-.8.7999-.4 0-.8-.2999-.8-.7999s.4-.8.8-.8Z"/>
	</g>
</svg>
